{
    "asset" : {
        "generator" : "Khronos glTF Blender I/O v1.6.16",
        "version" : "2.1"
    },
    "scene" : 0,
    "scenes" : [
        {
            "name" : "Scene",
            "nodes" : [
                0,
                1,
                2
            ]
        }
    ],
    "nodes" : [
        {
            "mesh" : 0,
            "name" : "Cube"
        },
        {
            "name" : "Light",
            "rotation" : [
                0.16907575726509094,
                0.7558803558349609,
                -0.27217137813568115,
                0.570947527885437
            ],
            "translation" : [
                4.076245307922363,
                5.903861999511719,
                -1.0054539442062378
            ]
        },
        {
            "name" : "Camera",
            "rotation" : [
                0.483536034822464,
                0.33687159419059753,
                -0.20870360732078552,
                0.7804827094078064
            ],
            "translation" : [
                7.358891487121582,
                4.958309173583984,
                6.925790786743164
            ]
        }
    ],
    "materials" : [
        {
            "doubleSided" : true,
            "name" : "green",
            "pbrMetallicRoughness" : {
                "baseColorFactor" : [
                    0.02001838944852352,
                    0.8000000715255737,
                    0.005118918139487505,
                    1
                ],
                "metallicFactor" : 0,
                "roughnessFactor" : 0.4000000059604645
            }
        },
        {
            "doubleSided" : true,
            "name" : "red",
            "pbrMetallicRoughness" : {
                "baseColorFactor" : [
                    0.8000000715255737,
                    0.011436465196311474,
                    0.011436465196311474,
                    1
                ],
                "metallicFactor" : 0,
                "roughnessFactor" : 0.5
            }
        },
        {
            "doubleSided" : true,
            "name" : "yeallow",
            "pbrMetallicRoughness" : {
                "baseColorFactor" : [
                    0.8000000715255737,
                    0.7836692929267883,
                    0.01910533383488655,
                    1
                ],
                "metallicFactor" : 0,
                "roughnessFactor" : 0.5
            }
        },
        {
            "doubleSided" : true,
            "name" : "blue",
            "pbrMetallicRoughness" : {
                "baseColorFactor" : [
                    0.009099836461246014,
                    0.009871145710349083,
                    0.8000000715255737,
                    1
                ],
                "metallicFactor" : 0,
                "roughnessFactor" : 0.5
            }
        },
        {
            "doubleSided" : true,
            "name" : "purple",
            "pbrMetallicRoughness" : {
                "baseColorFactor" : [
                    0.3751591742038727,
                    0.011238151229918003,
                    0.8000000715255737,
                    1
                ],
                "metallicFactor" : 0,
                "roughnessFactor" : 0.5
            }
        },
        {
            "doubleSided" : true,
            "name" : "orange",
            "pbrMetallicRoughness" : {
                "baseColorFactor" : [
                    0.8000000715255737,
                    0.1077655702829361,
                    0.012561059556901455,
                    1
                ],
                "metallicFactor" : 0,
                "roughnessFactor" : 0.5
            }
        }
    ],
    "meshes" : [
        {
            "name" : "Cube",
            "primitives" : [
                {
                    "attributes" : {
                        "POSITION" : 0,
                        "NORMAL" : 1
                    },
                    "indices" : 2,
                    "material" : 0
                },
                {
                    "attributes" : {
                        "POSITION" : 3,
                        "NORMAL" : 4
                    },
                    "indices" : 5,
                    "material" : 1
                },
                {
                    "attributes" : {
                        "POSITION" : 6,
                        "NORMAL" : 7
                    },
                    "indices" : 5,
                    "material" : 2
                },
                {
                    "attributes" : {
                        "POSITION" : 8,
                        "NORMAL" : 9
                    },
                    "indices" : 10,
                    "material" : 3
                },
                {
                    "attributes" : {
                        "POSITION" : 11,
                        "NORMAL" : 12
                    },
                    "indices" : 10,
                    "material" : 4
                },
                {
                    "attributes" : {
                        "POSITION" : 13,
                        "NORMAL" : 14
                    },
                    "indices" : 15,
                    "material" : 5
                }
            ]
        }
    ],
    "accessors" : [
        {
            "bufferView" : 0,
            "componentType" : 5126,
            "count" : 4,
            "max" : [
                1,
                1,
                1
            ],
            "min" : [
                -1,
                1,
                -1
            ],
            "type" : "VEC3"
        },
        {
            "bufferView" : 1,
            "componentType" : 5126,
            "count" : 4,
            "type" : "VEC3"
        },
        {
            "bufferView" : 2,
            "componentType" : 5123,
            "count" : 6,
            "type" : "SCALAR"
        },
        {
            "bufferView" : 3,
            "componentType" : 5126,
            "count" : 4,
            "max" : [
                1,
                1,
                1
            ],
            "min" : [
                1,
                -1,
                -1
            ],
            "type" : "VEC3"
        },
        {
            "bufferView" : 4,
            "componentType" : 5126,
            "count" : 4,
            "type" : "VEC3"
        },
        {
            "bufferView" : 5,
            "componentType" : 5123,
            "count" : 6,
            "type" : "SCALAR"
        },
        {
            "bufferView" : 6,
            "componentType" : 5126,
            "count" : 4,
            "max" : [
                1,
                1,
                1
            ],
            "min" : [
                -1,
                -1,
                1
            ],
            "type" : "VEC3"
        },
        {
            "bufferView" : 7,
            "componentType" : 5126,
            "count" : 4,
            "type" : "VEC3"
        },
        {
            "bufferView" : 8,
            "componentType" : 5126,
            "count" : 4,
            "max" : [
                -1,
                1,
                1
            ],
            "min" : [
                -1,
                -1,
                -1
            ],
            "type" : "VEC3"
        },
        {
            "bufferView" : 9,
            "componentType" : 5126,
            "count" : 4,
            "type" : "VEC3"
        },
        {
            "bufferView" : 10,
            "componentType" : 5123,
            "count" : 6,
            "type" : "SCALAR"
        },
        {
            "bufferView" : 11,
            "componentType" : 5126,
            "count" : 4,
            "max" : [
                1,
                1,
                -1
            ],
            "min" : [
                -1,
                -1,
                -1
            ],
            "type" : "VEC3"
        },
        {
            "bufferView" : 12,
            "componentType" : 5126,
            "count" : 4,
            "type" : "VEC3"
        },
        {
            "bufferView" : 13,
            "componentType" : 5126,
            "count" : 4,
            "max" : [
                1,
                -1,
                1
            ],
            "min" : [
                -1,
                -1,
                -1
            ],
            "type" : "VEC3"
        },
        {
            "bufferView" : 14,
            "componentType" : 5126,
            "count" : 4,
            "type" : "VEC3"
        },
        {
            "bufferView" : 15,
            "componentType" : 5123,
            "count" : 6,
            "type" : "SCALAR"
        }
    ],
    "bufferViews" : [
        {
            "buffer" : 0,
            "byteLength" : 48,
            "byteOffset" : 0
        },
        {
            "buffer" : 0,
            "byteLength" : 48,
            "byteOffset" : 48
        },
        {
            "buffer" : 0,
            "byteLength" : 12,
            "byteOffset" : 96
        },
        {
            "buffer" : 0,
            "byteLength" : 48,
            "byteOffset" : 108
        },
        {
            "buffer" : 0,
            "byteLength" : 48,
            "byteOffset" : 156
        },
        {
            "buffer" : 0,
            "byteLength" : 12,
            "byteOffset" : 204
        },
        {
            "buffer" : 0,
            "byteLength" : 48,
            "byteOffset" : 216
        },
        {
            "buffer" : 0,
            "byteLength" : 48,
            "byteOffset" : 264
        },
        {
            "buffer" : 0,
            "byteLength" : 48,
            "byteOffset" : 312
        },
        {
            "buffer" : 0,
            "byteLength" : 48,
            "byteOffset" : 360
        },
        {
            "buffer" : 0,
            "byteLength" : 12,
            "byteOffset" : 408
        },
        {
            "buffer" : 0,
            "byteLength" : 48,
            "byteOffset" : 420
        },
        {
            "buffer" : 0,
            "byteLength" : 48,
            "byteOffset" : 468
        },
        {
            "buffer" : 0,
            "byteLength" : 48,
            "byteOffset" : 516
        },
        {
            "buffer" : 0,
            "byteLength" : 48,
            "byteOffset" : 564
        },
        {
            "buffer" : 0,
            "byteLength" : 12,
            "byteOffset" : 612
        }
    ],
    "buffers" : [
        {
            "byteLength" : 624,
            "uri" : "data:application/octet-stream;base64,"
        }
    ]
}
